<?xml version="1.0" encoding="UTF-8"?>
<svg id="Layer_2" data-name="Layer 2" xmlns="http://www.w3.org/2000/svg" xmlns:xlink="http://www.w3.org/1999/xlink" viewBox="0 0 98.41 97.06">
  <defs>
    <style>
      .cls-1 {
        fill: url(#linear-gradient);
      }

      .cls-2 {
        fill: #fff;
      }

      .cls-3 {
        fill: url(#linear-gradient-3);
      }

      .cls-4 {
        fill: url(#linear-gradient-4);
      }

      .cls-5 {
        fill: url(#linear-gradient-2);
      }

      .cls-6 {
        fill: url(#linear-gradient-6);
      }

      .cls-7 {
        fill: url(#linear-gradient-5);
      }
    </style>
    <linearGradient id="linear-gradient" x1="-444.85" y1="-713" x2="-443.84" y2="-713" gradientTransform="translate(10739.54 -21702.96) scale(24 -30.5)" gradientUnits="userSpaceOnUse">
      <stop offset="0" stop-color="#976c53"/>
      <stop offset=".24" stop-color="#8d6249"/>
      <stop offset=".66" stop-color="#734731"/>
      <stop offset="1" stop-color="#592d18"/>
    </linearGradient>
    <linearGradient id="linear-gradient-2" x1="-443.86" y1="-713" x2="-444.92" y2="-713" gradientTransform="translate(10697.57 -21702.96) scale(24.02 -30.5)" xlink:href="#linear-gradient"/>
    <linearGradient id="linear-gradient-3" x1="-444.09" y1="-700.24" x2="-443.61" y2="-700.83" gradientTransform="translate(9869.13 -29810.36) scale(22.21 -42.59)" gradientUnits="userSpaceOnUse">
      <stop offset="0" stop-color="#ffe89b"/>
      <stop offset=".17" stop-color="#fee091"/>
      <stop offset=".45" stop-color="#fdcd76"/>
      <stop offset=".82" stop-color="#fbaf4c"/>
      <stop offset="1" stop-color="#fb9e34"/>
    </linearGradient>
    <linearGradient id="linear-gradient-4" x1="-443.58" y1="-700.25" x2="-444.06" y2="-700.83" gradientTransform="translate(9947.58 -29806.64) scale(22.22 -42.58)" xlink:href="#linear-gradient-3"/>
    <linearGradient id="linear-gradient-5" x1="-441.66" y1="-706.15" x2="-440.66" y2="-706.15" gradientTransform="translate(7251.45 -25445.88) scale(16.33 -36.09)" xlink:href="#linear-gradient-3"/>
    <linearGradient id="linear-gradient-6" x1="-449.06" y1="-772.28" x2="-449.06" y2="-773.51" gradientTransform="translate(33744.86 -9913.44) scale(75.04 -12.91)" xlink:href="#linear-gradient-3"/>
  </defs>
  <g id="svg2575">
    <g id="Layer_1-2" data-name="Layer 1-2">
      <g id="Group_29786" data-name="Group 29786">
        <g id="Group_29783" data-name="Group 29783">
          <path id="Path_30334" data-name="Path 30334" class="cls-2" d="M.42,84.44H3.15v5.42l4.99-5.42h3.35l-5.07,5.26,5.28,7.14h-3.28l-3.84-5.28-1.43,1.49v3.79H.42v-12.4Z"/>
          <path id="Path_30335" data-name="Path 30335" class="cls-2" d="M13.47,84.44h2.73v12.4h-2.73v-12.4Z"/>
          <path id="Path_30336" data-name="Path 30336" class="cls-2" d="M19.29,84.44h2.51l5.81,7.63v-7.63h2.69v12.4h-2.32l-6-7.88v7.88h-2.69v-12.4h0Z"/>
          <path id="Path_30337" data-name="Path 30337" class="cls-2" d="M32.73,90.68v-.04c-.03-3.51,2.8-6.38,6.31-6.41,.06,0,.13,0,.19,0,1.78-.09,3.53,.52,4.87,1.7l-1.72,2.07c-.87-.83-2.04-1.28-3.24-1.26-2.05,.09-3.64,1.81-3.56,3.86v.03c-.12,2.05,1.44,3.8,3.49,3.92,.09,0,.18,0,.26,0,.91,.03,1.81-.23,2.57-.74v-1.77h-2.74v-2.35h5.38v5.38c-1.47,1.27-3.35,1.97-5.29,1.97-3.42,.18-6.33-2.44-6.51-5.86,0-.17-.01-.34,0-.52h0Z"/>
          <path id="Path_30338" data-name="Path 30338" class="cls-2" d="M47.52,84.44h8.73v.85h-7.81v5.08h7.01v.85h-7.01v5.61h-.92v-12.39Z"/>
          <path id="Path_30339" data-name="Path 30339" class="cls-2" d="M59.14,84.44h.92v11.54h7.28v.85h-8.2v-12.39Z"/>
          <path id="Path_30340" data-name="Path 30340" class="cls-2" d="M68.57,90.68v-.04c-.1-3.44,2.62-6.31,6.06-6.41,3.44-.1,6.31,2.62,6.41,6.06,0,.1,0,.21,0,.31v.03c.1,3.44-2.62,6.31-6.06,6.41s-6.31-2.62-6.41-6.06c0-.1,0-.21,0-.31Zm11.51,0v-.04c.12-2.96-2.19-5.46-5.15-5.57-.05,0-.1,0-.15,0-2.93,.02-5.28,2.41-5.26,5.34,0,.07,0,.14,0,.21v.03c-.12,2.96,2.19,5.46,5.15,5.57,.05,0,.1,0,.15,0,2.93-.02,5.28-2.41,5.26-5.34,0-.07,0-.14,0-.21Z"/>
          <path id="Path_30341" data-name="Path 30341" class="cls-2" d="M84.18,84.44h.92v8.15l7.9-8.15h1.26l-5.42,5.47,5.65,6.92h-1.2l-5.1-6.27-3.08,3.12v3.15h-.92v-12.4h0Z"/>
          <path id="Path_30342" data-name="Path 30342" class="cls-2" d="M96.96,84.44h.92v12.4h-.92v-12.4Z"/>
        </g>
        <g id="Group_29785" data-name="Group 29785">
          <path id="Path_30343" data-name="Path 30343" class="cls-1" d="M61.41,57.24h19.45c2.51,0,4.54-2.02,4.55-4.53,0-.44-.06-.87-.18-1.29-3.49-11.59-12.36-20.78-23.82-24.68v30.5Z"/>
          <path id="Path_30344" data-name="Path 30344" class="cls-5" d="M37.38,26.74c-11.47,3.9-20.35,13.12-23.83,24.72-.7,2.38,.66,4.89,3.04,5.59,.42,.12,.85,.19,1.29,.18h19.5V26.74Z"/>
          <g id="Group_29784" data-name="Group 29784">
            <path id="Path_30345" data-name="Path 30345" class="cls-3" d="M21.59,30.38c-3.65,3.23-6.73,7.05-9.14,11.28-.51,.89-1.64,1.19-2.53,.68-.2-.11-.37-.26-.51-.44C3.58,34.79,0,22.04,0,12.54,0,8.74,.56,4.97,1.63,1.32,1.92,.34,2.95-.21,3.93,.08c.65,.19,1.14,.72,1.28,1.38,2.22,10.16,8.16,20.98,16.12,25.98,.87,.54,1.13,1.68,.59,2.54-.09,.15-.21,.28-.34,.4h0Z"/>
            <path id="Path_30360" data-name="Path 30360" class="cls-4" d="M76.81,30.38c3.65,3.23,6.73,7.05,9.14,11.29,.51,.89,1.64,1.19,2.53,.68,.2-.11,.37-.27,.52-.44,5.83-7.11,9.42-19.86,9.42-29.36,0-3.8-.56-7.57-1.64-11.21-.3-.98-1.33-1.53-2.31-1.24-.64,.19-1.13,.72-1.27,1.37-2.23,10.16-8.17,20.98-16.13,25.98-.87,.54-1.13,1.68-.59,2.54,.09,.15,.21,.28,.34,.4h0Z"/>
          </g>
          <path id="Path_30347" data-name="Path 30347" class="cls-7" d="M51.24,21.07h-3.47c-3.55,0-6.43,2.88-6.43,6.43h0v29.66h16.33V27.5c0-3.55-2.88-6.43-6.43-6.43h0Zm-1.94,30.89c-1.72,0-3.12-1.4-3.12-3.12s1.4-3.12,3.12-3.12,3.12,1.4,3.12,3.12h0c0,1.72-1.4,3.12-3.12,3.12Zm0-9.13c-1.72,0-3.12-1.4-3.12-3.12s1.4-3.12,3.12-3.12,3.12,1.4,3.12,3.12h0c0,1.72-1.4,3.12-3.12,3.12Zm0-9.13c-1.72,0-3.12-1.4-3.12-3.12s1.4-3.12,3.12-3.12,3.12,1.4,3.12,3.12h0c0,1.72-1.4,3.11-3.12,3.11h0Z"/>
          <path id="Path_30348" data-name="Path 30348" class="cls-6" d="M80.45,61.76H18.35c-3.56,0-6.46,2.88-6.47,6.44,0,3.57,2.88,6.46,6.44,6.47h62.13c3.56,0,6.46-2.88,6.47-6.44,0-3.57-2.88-6.46-6.44-6.47h-.03Zm-58.21,9.35c-1.72,0-3.12-1.4-3.12-3.12s1.4-3.12,3.12-3.12,3.12,1.4,3.12,3.12c0,1.72-1.4,3.12-3.12,3.12h0Zm13.58,0c-1.72,0-3.12-1.4-3.12-3.12s1.4-3.12,3.12-3.12,3.12,1.4,3.12,3.12c0,1.72-1.4,3.12-3.12,3.12h0Zm13.58,0c-1.72,0-3.12-1.4-3.12-3.12s1.4-3.12,3.12-3.12,3.12,1.4,3.12,3.12c0,1.72-1.4,3.12-3.12,3.12h0Zm13.58,0c-1.72,0-3.12-1.4-3.12-3.12s1.4-3.12,3.12-3.12,3.12,1.4,3.12,3.12c0,1.72-1.4,3.12-3.12,3.12h0Zm13.58,0c-1.72,0-3.12-1.4-3.12-3.12s1.4-3.12,3.12-3.12,3.12,1.4,3.12,3.12c0,1.72-1.4,3.12-3.12,3.12h0Z"/>
        </g>
      </g>
    </g>
  </g>
</svg>