<?xml version="1.0" encoding="UTF-8"?>
<svg id="Layer_2" data-name="Layer 2" xmlns="http://www.w3.org/2000/svg" xmlns:xlink="http://www.w3.org/1999/xlink" viewBox="0 0 124.42 22.78">
  <defs>
    <style>
      .cls-1 {
        fill: url(#linear-gradient);
      }

      .cls-2 {
        fill: #fff;
      }

      .cls-3 {
        fill: url(#linear-gradient-3);
      }

      .cls-4 {
        fill: url(#linear-gradient-4);
      }

      .cls-5 {
        fill: url(#linear-gradient-2);
      }

      .cls-6 {
        fill: url(#linear-gradient-6);
      }

      .cls-7 {
        fill: url(#linear-gradient-5);
      }
    </style>
    <linearGradient id="linear-gradient" x1="-461.37" y1="-695.05" x2="-460.36" y2="-695.05" gradientTransform="translate(3396.24 -6452.56) scale(7.32 -9.3)" gradientUnits="userSpaceOnUse">
      <stop offset="0" stop-color="#976c53"/>
      <stop offset=".24" stop-color="#8d6249"/>
      <stop offset=".66" stop-color="#734731"/>
      <stop offset="1" stop-color="#592d18"/>
    </linearGradient>
    <linearGradient id="linear-gradient-2" x1="-460.39" y1="-695.05" x2="-461.45" y2="-695.05" gradientTransform="translate(3383.52 -6452.56) scale(7.32 -9.3)" xlink:href="#linear-gradient"/>
    <linearGradient id="linear-gradient-3" x1="-458.95" y1="-656.7" x2="-458.47" y2="-657.28" gradientTransform="translate(3111.64 -8525.41) scale(6.78 -12.99)" gradientUnits="userSpaceOnUse">
      <stop offset="0" stop-color="#ffe89b"/>
      <stop offset=".17" stop-color="#fee091"/>
      <stop offset=".45" stop-color="#fdcd76"/>
      <stop offset=".82" stop-color="#fbaf4c"/>
      <stop offset="1" stop-color="#fb9e34"/>
    </linearGradient>
    <linearGradient id="linear-gradient-4" x1="-458.44" y1="-656.65" x2="-458.92" y2="-657.23" gradientTransform="translate(3135.51 -8529.14) scale(6.78 -12.99)" xlink:href="#linear-gradient-3"/>
    <linearGradient id="linear-gradient-5" x1="-448.43" y1="-674.22" x2="-447.43" y2="-674.22" gradientTransform="translate(2245.35 -7409.91) scale(4.98 -11.01)" xlink:href="#linear-gradient-3"/>
    <linearGradient id="linear-gradient-6" x1="-479.64" y1="-877.31" x2="-479.64" y2="-878.53" gradientTransform="translate(10946.09 -3436.65) scale(22.79 -3.94)" xlink:href="#linear-gradient-3"/>
  </defs>
  <g id="svg2575">
    <g id="Layer_1-3" data-name="Layer 1-3">
      <g id="Group_29815" data-name="Group 29815">
        <g id="Group_29813" data-name="Group 29813">
          <path id="Path_30425" data-name="Path 30425" class="cls-1" d="M18.73,17.46h5.93c.76,0,1.39-.62,1.39-1.38,0-.13-.02-.26-.06-.39-1.06-3.53-3.77-6.34-7.26-7.53v9.3Z"/>
          <path id="Path_30426" data-name="Path 30426" class="cls-5" d="M11.4,8.16c-3.5,1.19-6.21,4-7.27,7.54-.21,.73,.2,1.49,.93,1.71,.13,.04,.26,.06,.39,.06h5.95V8.16Z"/>
          <g id="Group_29812" data-name="Group 29812">
            <path id="Path_30427" data-name="Path 30427" class="cls-3" d="M6.59,9.27c-1.11,.99-2.05,2.15-2.79,3.44-.16,.27-.5,.36-.77,.21-.06-.03-.11-.08-.16-.13C1.02,10.16,.02,7.04,0,3.83,0,2.67,.17,1.52,.5,.41,.59,.11,.91-.06,1.2,.03c.19,.06,.34,.22,.39,.42,.68,3.1,2.49,6.4,4.92,7.92,.26,.16,.35,.51,.18,.77-.03,.05-.07,.09-.11,.13h0Z"/>
            <path id="Path_30440" data-name="Path 30440" class="cls-4" d="M23.57,9.27c1.11,.99,2.05,2.15,2.79,3.44,.16,.27,.5,.36,.77,.21,.06-.03,.11-.08,.16-.13,1.85-2.62,2.85-5.75,2.87-8.96,0-1.16-.17-2.31-.5-3.42-.09-.3-.4-.47-.7-.38-.2,.06-.35,.22-.39,.42-.68,3.1-2.49,6.4-4.92,7.92-.26,.16-.35,.51-.18,.77,.03,.05,.07,.09,.11,.13h0Z"/>
          </g>
          <path id="Path_30429" data-name="Path 30429" class="cls-7" d="M15.63,6.43h-1.06c-1.08,0-1.96,.88-1.96,1.96v9.05h4.98V8.39c0-1.08-.88-1.96-1.96-1.96h0Zm-.59,9.42c-.53,0-.95-.43-.95-.95,0-.53,.43-.95,.95-.95s.95,.43,.95,.95c0,.52-.43,.95-.95,.95h0Zm0-2.78c-.53,0-.95-.43-.95-.95,0-.53,.43-.95,.95-.95s.95,.43,.95,.95-.43,.95-.95,.95Zm0-2.78c-.53,0-.95-.43-.95-.95,0-.53,.43-.95,.95-.95s.95,.43,.95,.95c0,.52-.43,.95-.95,.95h0Z"/>
          <path id="Path_30430" data-name="Path 30430" class="cls-6" d="M24.54,18.84H5.6c-1.09,.02-1.95,.93-1.92,2.01,.02,1.05,.87,1.9,1.92,1.92H24.54c1.09-.02,1.95-.93,1.92-2.01-.02-1.05-.87-1.9-1.92-1.92Zm-17.75,2.85c-.53,0-.95-.43-.95-.95s.43-.95,.95-.95,.95,.43,.95,.95-.43,.95-.95,.95h0Zm4.14,0c-.53,0-.95-.43-.95-.95s.43-.95,.95-.95,.95,.43,.95,.95-.43,.95-.95,.95h0Zm4.14,0c-.53,0-.95-.43-.95-.95s.43-.95,.95-.95,.95,.43,.95,.95-.43,.95-.95,.95h0Zm4.14,0c-.53,0-.95-.43-.95-.95s.43-.95,.95-.95,.95,.43,.95,.95-.43,.95-.95,.95h0Zm4.14,0c-.53,0-.95-.43-.95-.95,0-.53,.43-.95,.95-.95,.53,0,.95,.43,.95,.95s-.43,.95-.95,.95h0Z"/>
        </g>
        <g id="Group_29814" data-name="Group 29814">
          <path id="Path_30431" data-name="Path 30431" class="cls-2" d="M35.39,6.32h2.49v4.95l4.56-4.95h3.06l-4.63,4.8,4.82,6.52h-2.99l-3.51-4.82-1.31,1.36v3.46h-2.49V6.32h0Z"/>
          <path id="Path_30432" data-name="Path 30432" class="cls-2" d="M47.31,6.32h2.49v11.32h-2.49V6.32Z"/>
          <path id="Path_30433" data-name="Path 30433" class="cls-2" d="M52.63,6.32h2.3l5.31,6.97V6.32h2.46v11.32h-2.12l-5.48-7.2v7.2h-2.46V6.32h0Z"/>
          <path id="Path_30434" data-name="Path 30434" class="cls-2" d="M64.91,12.01v-.03c-.03-3.21,2.56-5.83,5.77-5.86,.06,0,.11,0,.17,0,1.63-.09,3.23,.47,4.45,1.55l-1.57,1.89c-.8-.76-1.86-1.17-2.96-1.15-1.87,.08-3.32,1.66-3.25,3.53v.03c-.11,1.87,1.32,3.48,3.19,3.59,.08,0,.16,0,.24,0,.83,.03,1.65-.21,2.34-.68v-1.62h-2.51v-2.15h4.92v4.92c-1.34,1.16-3.06,1.8-4.84,1.8-3.12,.16-5.78-2.23-5.95-5.35,0-.16-.01-.31,0-.47h0Z"/>
          <path id="Path_30435" data-name="Path 30435" class="cls-2" d="M78.42,6.32h7.97v.78h-7.13v4.64h6.41v.78h-6.41v5.13h-.84V6.32Z"/>
          <path id="Path_30436" data-name="Path 30436" class="cls-2" d="M89.03,6.32h.84v10.55h6.65v.78h-7.49V6.32Z"/>
          <path id="Path_30437" data-name="Path 30437" class="cls-2" d="M97.65,12.01v-.03c-.15-3.14,2.27-5.82,5.42-5.97s5.82,2.27,5.97,5.42c0,.17,0,.35,0,.52v.03c.15,3.14-2.27,5.82-5.42,5.97s-5.82-2.27-5.97-5.42c0-.17,0-.35,0-.52Zm10.52,0v-.03c.11-2.7-1.99-4.99-4.7-5.1-.05,0-.09,0-.14,0-2.68,.02-4.83,2.21-4.8,4.89,0,.06,0,.12,0,.18v.03c-.11,2.7,1.99,4.99,4.7,5.1,.05,0,.09,0,.14,0,2.68-.02,4.83-2.21,4.8-4.89,0-.06,0-.12,0-.18Z"/>
          <path id="Path_30438" data-name="Path 30438" class="cls-2" d="M111.9,6.32h.84v7.44l7.21-7.44h1.15l-4.95,5,5.16,6.32h-1.1l-4.66-5.73-2.81,2.85v2.88h-.84V6.32h0Z"/>
          <path id="Path_30439" data-name="Path 30439" class="cls-2" d="M123.58,6.32h.84v11.32h-.84V6.32Z"/>
        </g>
      </g>
    </g>
  </g>
</svg>