<?xml version="1.0" encoding="UTF-8"?>
<svg id="Layer_2" data-name="Layer 2" xmlns="http://www.w3.org/2000/svg" xmlns:xlink="http://www.w3.org/1999/xlink" viewBox="0 0 104.21 24.66">
  <defs>
    <style>
      .cls-1 {
        fill: url(#linear-gradient);
      }

      .cls-2 {
        fill: #fff;
      }

      .cls-3 {
        fill: url(#linear-gradient-3);
      }

      .cls-4 {
        fill: url(#linear-gradient-4);
      }

      .cls-5 {
        fill: url(#linear-gradient-2);
      }
    </style>
    <linearGradient id="linear-gradient" x1="-599.07" y1="-680.55" x2="-598.04" y2="-680.96" gradientTransform="translate(2402.4 -7069.29) scale(4.01 -10.4)" gradientUnits="userSpaceOnUse">
      <stop offset="0" stop-color="#ffe89b"/>
      <stop offset=".17" stop-color="#fee091"/>
      <stop offset=".45" stop-color="#fdcd76"/>
      <stop offset=".82" stop-color="#fbaf4c"/>
      <stop offset="1" stop-color="#fb9e34"/>
    </linearGradient>
    <linearGradient id="linear-gradient-2" x1="-597.26" y1="-679.65" x2="-598.33" y2="-679.93" gradientTransform="translate(2442.86 -7119.54) scale(4.05 -10.49)" xlink:href="#linear-gradient"/>
    <linearGradient id="linear-gradient-3" x1="-639.28" y1="-624.58" x2="-638.28" y2="-624.58" gradientTransform="translate(13645.41 -12206.13) scale(21.34 -19.56)" xlink:href="#linear-gradient"/>
    <linearGradient id="linear-gradient-4" x1="-638.91" y1="-884.75" x2="-638.91" y2="-885.35" gradientTransform="translate(13847.34 -3386.06) scale(21.66 -3.85)" gradientUnits="userSpaceOnUse">
      <stop offset="0" stop-color="#371378"/>
      <stop offset="1" stop-color="#a65bf6"/>
    </linearGradient>
  </defs>
  <g id="svg2575">
    <g id="Layer_1-2" data-name="Layer 1-2">
      <g id="Group_29811" data-name="Group 29811">
        <g id="Group_29809" data-name="Group 29809">
          <g id="Group_29808" data-name="Group 29808">
            <path id="Path_30414" data-name="Path 30414" class="cls-1" d="M4.01,10.56L.86,6.81c-.17-.21-.48-.23-.69-.06-.12,.1-.18,.25-.17,.4l.45,9.89,3.57-6.47Z"/>
            <path id="Path_30415" data-name="Path 30415" class="cls-5" d="M22.69,17.13l.45-9.98c.01-.27-.2-.5-.47-.51-.15,0-.3,.06-.4,.17l-3.19,3.79,3.6,6.52Z"/>
          </g>
          <path id="Path_30416" data-name="Path 30416" class="cls-3" d="M22.18,18.82L12,.25c-.13-.24-.43-.32-.66-.19-.08,.04-.15,.11-.19,.19L.96,18.82c-.13,.24-.04,.53,.19,.66,.07,.04,.15,.06,.23,.06l10.18,.02,10.18-.02c.27,0,.49-.22,.49-.49,0-.08-.02-.16-.06-.24Zm-10.61-2.25c-1.94,0-3.51-1.57-3.51-3.51s1.57-3.51,3.51-3.51c1.94,0,3.51,1.57,3.51,3.51s-1.57,3.51-3.51,3.51h0Z"/>
          <path id="Path_30417" data-name="Path 30417" class="cls-4" d="M22.21,21.8c.23-.22,.24-.58,.03-.81-.11-.12-.26-.18-.42-.18H1.31c-.32,0-.57,.26-.57,.57,0,.16,.07,.31,.18,.42l2.93,2.71c.22,.2,.56,.2,.78,0l2.89-2.67c.22-.2,.56-.2,.78,0l2.89,2.67c.22,.2,.56,.2,.78,0l2.89-2.67c.22-.2,.56-.2,.78,0l2.89,2.67c.22,.2,.56,.2,.78,0l2.93-2.71h0Z"/>
        </g>
        <g id="Group_29810" data-name="Group 29810">
          <path id="Path_30418" data-name="Path 30418" class="cls-2" d="M28.94,6.67h2.49v4.95l4.56-4.95h3.06l-4.63,4.8,4.82,6.52h-2.99l-3.51-4.82-1.31,1.36v3.46h-2.49V6.67h0Z"/>
          <path id="Path_30419" data-name="Path 30419" class="cls-2" d="M40.86,6.67h2.49v11.32h-2.49V6.67Z"/>
          <path id="Path_30420" data-name="Path 30420" class="cls-2" d="M46.19,6.67h2.3l5.31,6.97V6.67h2.45v11.32h-2.12l-5.48-7.2v7.2h-2.46V6.67h0Z"/>
          <path id="Path_30421" data-name="Path 30421" class="cls-2" d="M58.46,12.36v-.03c-.03-3.21,2.56-5.83,5.77-5.86,.06,0,.11,0,.17,0,1.63-.09,3.23,.47,4.45,1.55l-1.57,1.89c-.8-.76-1.86-1.17-2.96-1.15-1.87,.08-3.32,1.66-3.25,3.53v.03c-.11,1.87,1.32,3.48,3.19,3.59,.08,0,.16,0,.24,0,.83,.03,1.65-.21,2.34-.68v-1.62h-2.51v-2.15h4.92v4.92c-1.34,1.16-3.06,1.8-4.84,1.8-3.12,.16-5.78-2.23-5.95-5.35,0-.16-.01-.31,0-.47h0Z"/>
          <path id="Path_30422" data-name="Path 30422" class="cls-2" d="M71.97,6.67h4.11c2.49,0,4.21,1.28,4.21,3.46v.03c0,2.39-2.04,3.61-4.42,3.61h-3.06v4.22h-.84V6.67h0Zm3.95,6.32c2.1,0,3.53-1.08,3.53-2.78v-.03c0-1.8-1.41-2.73-3.43-2.73h-3.2v5.55h3.1Z"/>
          <path id="Path_30423" data-name="Path 30423" class="cls-2" d="M85.95,6.59h.81l5.27,11.4h-.92l-1.44-3.17h-6.68l-1.44,3.17h-.87l5.27-11.4h0Zm3.36,7.47l-2.98-6.55-2.99,6.55h5.97Z"/>
          <path id="Path_30424" data-name="Path 30424" class="cls-2" d="M94.42,6.67h3.77c3.56,0,6.02,2.44,6.02,5.63v.03c0,3.13-2.53,5.67-5.67,5.67-.12,0-.24,0-.35-.01h-3.77V6.67Zm.84,.78v9.77h2.93c2.65,.19,4.94-1.81,5.13-4.45,0-.13,.01-.27,.01-.4v-.03c.03-2.68-2.12-4.87-4.8-4.89-.11,0-.23,0-.34,0h-2.93Z"/>
        </g>
      </g>
    </g>
  </g>
</svg>